<svg xmlns="http://www.w3.org/2000/svg" width="16" height="16" viewBox="0 0 16 16">
  <g id="contact_page_black_24dp" transform="translate(0.289 0.289)">
    <rect id="Rectangle_1116" data-name="Rectangle 1116" width="16" height="16" transform="translate(-0.289 -0.289)" fill="none"/>
    <path id="Path_62" data-name="Path 62" d="M9.892,3.285l3.1,3.1v7.178H5.285V3.285H9.892M10.426,2H5.285A1.289,1.289,0,0,0,4,3.285V13.566a1.289,1.289,0,0,0,1.285,1.285H13a1.289,1.289,0,0,0,1.285-1.285V5.855L10.426,2ZM9.141,9.711A1.285,1.285,0,1,0,7.855,8.426,1.289,1.289,0,0,0,9.141,9.711Zm2.57,2.2a1.292,1.292,0,0,0-.784-1.189,4.467,4.467,0,0,0-3.573,0,1.292,1.292,0,0,0-.784,1.189v.366h5.141Z" transform="translate(-1.43 -0.715)"/>
  </g>
</svg>
