<svg xmlns="http://www.w3.org/2000/svg" xmlns:xlink="http://www.w3.org/1999/xlink" width="46" height="47" viewBox="0 0 46 47">
  <defs>
    <filter id="Ellipse_22" x="0" y="0" width="46" height="45" filterUnits="userSpaceOnUse">
      <feOffset dy="3" input="SourceAlpha"/>
      <feGaussianBlur stdDeviation="3" result="blur"/>
      <feFlood flood-opacity="0.161"/>
      <feComposite operator="in" in2="blur"/>
      <feComposite in="SourceGraphic"/>
    </filter>
  </defs>
  <g id="Group_40" data-name="Group 40" transform="translate(-3680 -811.753)">
    <g id="share_black_24dp" transform="translate(3693.549 821.802)">
      <path id="Path_43" data-name="Path 43" d="M0,0H18.9V18.9H0Z" fill="none"/>
      <path id="Path_44" data-name="Path 44" d="M14.814,13.089a2.293,2.293,0,0,0-1.544.606L7.655,10.427a2.578,2.578,0,0,0,.071-.551,2.578,2.578,0,0,0-.071-.551l5.553-3.237a2.358,2.358,0,1,0-.756-1.725,2.578,2.578,0,0,0,.071.551L6.969,8.151a2.363,2.363,0,1,0,0,3.45l5.608,3.276a2.222,2.222,0,0,0-.063.512,2.3,2.3,0,1,0,2.3-2.3Zm0-9.514a.788.788,0,1,1-.788.788A.79.79,0,0,1,14.814,3.575ZM5.363,10.664a.788.788,0,1,1,.788-.788A.79.79,0,0,1,5.363,10.664Zm9.451,5.529A.788.788,0,1,1,15.6,15.4.79.79,0,0,1,14.814,16.193Z" transform="translate(-0.637 -0.425)" fill="#94c25b"/>
    </g>
    <g id="Group_39" data-name="Group 39" transform="translate(3656.487 818.197)">
      <g transform="matrix(1, 0, 0, 1, 23.51, -6.44)" filter="url(#Ellipse_22)">
        <g id="Ellipse_22-2" data-name="Ellipse 22" transform="translate(9 6)" fill="none" stroke="#94c25b" stroke-width="1">
          <ellipse cx="14" cy="13.5" rx="14" ry="13.5" stroke="none"/>
          <ellipse cx="14" cy="13.5" rx="13.5" ry="13" fill="none"/>
        </g>
      </g>
    </g>
    <text id="Share" transform="translate(3691.5 856.753)" fill="#51585a" font-size="8" font-family="SegoeUI, Segoe UI" letter-spacing="0.008em"><tspan x="0" y="0">Share</tspan></text>
  </g>
</svg>
