<svg id="call_black_24dp_1_" data-name="call_black_24dp (1)" xmlns="http://www.w3.org/2000/svg" width="13.693" height="13.693" viewBox="0 0 13.693 13.693">
  <path id="Path_63" data-name="Path 63" d="M0,0H13.693V13.693H0Z" fill="none"/>
  <path id="Path_64" data-name="Path 64" d="M5.02,4.141a7.025,7.025,0,0,0,.257,1.478L4.592,6.3a8.458,8.458,0,0,1-.434-2.162H5.02M10.645,11a7.276,7.276,0,0,0,1.483.257v.85a8.8,8.8,0,0,1-2.168-.428L10.645,11M5.567,3h-2A.572.572,0,0,0,3,3.571a9.7,9.7,0,0,0,9.7,9.7.572.572,0,0,0,.571-.571V10.708a.572.572,0,0,0-.571-.571,6.508,6.508,0,0,1-2.037-.325.479.479,0,0,0-.177-.029.584.584,0,0,0-.405.165L8.825,11.2a8.643,8.643,0,0,1-3.76-3.76L6.321,6.189a.573.573,0,0,0,.143-.582,6.482,6.482,0,0,1-.325-2.037A.572.572,0,0,0,5.567,3Z" transform="translate(-1.288 -1.288)"/>
</svg>
