<svg xmlns="http://www.w3.org/2000/svg" xmlns:xlink="http://www.w3.org/1999/xlink" width="46" height="47" viewBox="0 0 46 47">
  <defs>
    <filter id="Ellipse_22" x="0" y="0" width="46" height="45" filterUnits="userSpaceOnUse">
      <feOffset dy="3" input="SourceAlpha"/>
      <feGaussianBlur stdDeviation="3" result="blur"/>
      <feFlood flood-opacity="0.161"/>
      <feComposite operator="in" in2="blur"/>
      <feComposite in="SourceGraphic"/>
    </filter>
  </defs>
  <g id="Group_38" data-name="Group 38" transform="translate(-3706 -811.753)">
    <g id="navigation_black_24dp" transform="translate(3717 819)">
      <path id="Path_41" data-name="Path 41" d="M0,0H24V24H0Z" fill="none"/>
      <path id="Path_42" data-name="Path 42" d="M12,7.27,16.28,17.7l-3.47-1.53L12,15.81l-.81.36L7.72,17.7,12,7.27M12,2,4.5,20.29l.71.71L12,18l6.79,3,.71-.71Z" fill="#94c25b"/>
    </g>
    <g id="Group_37" data-name="Group 37" transform="translate(3715.487 818.197)">
      <g transform="matrix(1, 0, 0, 1, -9.49, -6.44)" filter="url(#Ellipse_22)">
        <g id="Ellipse_22-2" data-name="Ellipse 22" transform="translate(9 6)" fill="none" stroke="#94c25b" stroke-width="1">
          <ellipse cx="14" cy="13.5" rx="14" ry="13.5" stroke="none"/>
          <ellipse cx="14" cy="13.5" rx="13.5" ry="13" fill="none"/>
        </g>
      </g>
    </g>
    <text id="Start" transform="translate(3719 856.753)" fill="#51585a" font-size="8" font-family="SegoeUI, Segoe UI" letter-spacing="0.008em"><tspan x="0" y="0">Start</tspan></text>
  </g>
</svg>
