<svg xmlns="http://www.w3.org/2000/svg" width="84" height="99.428" viewBox="0 0 84 99.428">
  <g id="Group_83" data-name="Group 83" transform="translate(-906.118 -467.388)">
    <path id="Path_75" data-name="Path 75" d="M956.529,497c-.135,0-.268.008-.4.01a24.118,24.118,0,0,1-22.114,20.8c-.046.588-.077,1.18-.077,1.779,0,12.183,21.133,40.5,22.031,41.7a.7.7,0,0,0,1.122,0c.9-1.2,22.033-29.513,22.033-41.7A22.618,22.618,0,0,0,956.529,497Zm0,32.158a9.28,9.28,0,1,1,9.279-9.279A9.28,9.28,0,0,1,956.53,529.158Z" transform="translate(-4.099 -4.364)" fill="#51585a"/>
    <path id="Path_76" data-name="Path 76" d="M990.942,575.806l-12.983-14.963a2.8,2.8,0,0,0-2.117-.966H965.589a2.8,2.8,0,0,0,0,5.605h8.973l8.116,9.354-57.388-.041,8.051-9.313H942.4a2.8,2.8,0,0,0,0-5.605l-10.343,0a2.805,2.805,0,0,0-2.12.97L917.047,575.76a2.8,2.8,0,0,0,2.119,4.635l69.658.049h0a2.8,2.8,0,0,0,2.117-4.639Z" transform="translate(-1.51 -13.629)" fill="#51585a"/>
    <path id="Path_77" data-name="Path 77" d="M928.131,467.388A22.013,22.013,0,1,0,950.144,489.4,22.013,22.013,0,0,0,928.131,467.388Zm.42,39.245a3.628,3.628,0,1,1,3.628-3.627A3.681,3.681,0,0,1,928.551,506.633Zm3.1-17.033v5.309h-6.194v-7.389c3.053-1.062,6.106-3.495,6.106-6.459a3.229,3.229,0,0,0-3.495-3.495c-2.257,0-4.115,1.592-4.557,4.955l-4.955-1.947c.84-5.132,4.557-8.406,9.689-8.406,5.841,0,9.468,3.539,9.468,8.671C937.709,485.353,934.392,488.185,931.649,489.6Z" fill="#51585a"/>
  </g>
</svg>
