<svg xmlns="http://www.w3.org/2000/svg" width="18.578" height="18.578" viewBox="0 0 18.578 18.578"><path d="M0,0H18.578V18.578H0Z" fill="none"/><path d="M9.741,6.1V3H2V16.934H17.482V6.1ZM5.1,15.385H3.548V13.837H5.1Zm0-3.1H3.548V10.741H5.1Zm0-3.1H3.548V7.645H5.1Zm0-3.1H3.548V4.548H5.1Zm3.1,9.289H6.645V13.837H8.193Zm0-3.1H6.645V10.741H8.193Zm0-3.1H6.645V7.645H8.193Zm0-3.1H6.645V4.548H8.193Zm7.741,9.289H9.741V13.837h1.548V12.289H9.741V10.741h1.548V9.193H9.741V7.645h6.193ZM14.385,9.193H12.837v1.548h1.548Zm0,3.1H12.837v1.548h1.548Z" transform="translate(-0.452 -0.678)"/></svg>