<svg xmlns="http://www.w3.org/2000/svg" xmlns:xlink="http://www.w3.org/1999/xlink" width="46" height="45" viewBox="0 0 46 45"><defs><filter id="a" x="0" y="0" width="46" height="45" filterUnits="userSpaceOnUse"><feOffset dy="3" input="SourceAlpha"/><feGaussianBlur stdDeviation="3" result="b"/><feFlood flood-opacity="0.161"/><feComposite operator="in" in2="b"/><feComposite in="SourceGraphic"/></filter></defs><g transform="translate(-3680 -812.753)"><g transform="translate(3693.549 822.802)"><path d="M0,0H18.9V18.9H0Z" fill="none"/><path d="M14.814,13.089a2.293,2.293,0,0,0-1.544.606L7.655,10.427a2.578,2.578,0,0,0,.071-.551,2.578,2.578,0,0,0-.071-.551l5.553-3.237a2.358,2.358,0,1,0-.756-1.725,2.578,2.578,0,0,0,.071.551L6.969,8.151a2.363,2.363,0,1,0,0,3.45l5.608,3.276a2.222,2.222,0,0,0-.063.512,2.3,2.3,0,1,0,2.3-2.3Zm0-9.514a.788.788,0,1,1-.788.788A.79.79,0,0,1,14.814,3.575ZM5.363,10.664a.788.788,0,1,1,.788-.788A.79.79,0,0,1,5.363,10.664Zm9.451,5.529A.788.788,0,1,1,15.6,15.4.79.79,0,0,1,14.814,16.193Z" transform="translate(-0.637 -0.425)" fill="#94c25b"/></g><g transform="translate(3656.487 819.197)"><g transform="matrix(1, 0, 0, 1, 23.51, -6.44)" filter="url(#a)"><g transform="translate(9 6)" fill="none" stroke="#94c25b" stroke-width="1"><ellipse cx="14" cy="13.5" rx="14" ry="13.5" stroke="none"/><ellipse cx="14" cy="13.5" rx="13.5" ry="13" fill="none"/></g></g></g></g></svg>