<svg xmlns="http://www.w3.org/2000/svg" width="33.596" height="30.373" viewBox="0 0 33.596 30.373"><g transform="translate(-23.519 533.255)"><path d="M40.558-386.387c0,.094-.033.14-.1.14H39.71c-.174,0-.311.122-.415.363q-.534,1.161-1.28,2.647-.917,1.853-4.394,9.532-.311.71-.743,1.731-.3.64-.711.64-.4,0-.777-.813-.052-.088-1.618-3.66t-1.651-3.745q-2.094-4.465-2.337-5.173-.743-1.559-1.383-1.558h-.64c-.163,0-.243-.057-.243-.172v-.675c0-.114.08-.173.243-.173h7.161a.153.153,0,0,1,.172.173v.675c0,.115-.045.172-.137.172H29.227c-.161,0-.242.122-.242.364a2.538,2.538,0,0,0,.138.657q.052.208.659,1.695c.426,1.038.681,1.621.76,1.748q1.038,2.455,2.405,5.57c.126.254.219.381.278.381.079,0,.177-.127.293-.381q1.852-4.115,2.231-5.034A11.92,11.92,0,0,0,36.84-385.5c0-.5-.163-.744-.485-.744H34.468a.152.152,0,0,1-.172-.174v-.674c0-.1.017-.163.052-.181a.269.269,0,0,1,.12-.026h5.884c.137,0,.206.06.206.173v.743" transform="translate(0 -131.547)" fill="#fff"/><path d="M195.666-511.7a7.742,7.742,0,0,1-2.474,6.054,7.68,7.68,0,0,1-5.312,2.025,10.922,10.922,0,0,1-4.584-1,4.16,4.16,0,0,0-1.453-.45q-.641,0-.882,1.834-.036.364-.278.363h-.363c-.162,0-.243-.2-.243-.606q0-.121.034-6.393t.034-6.755c0-2.144.012-7.127.035-9.042s.034-2.82.034-2.716q0-2.975-.778-2.977h-1.99a.182.182,0,0,1-.207-.207v-.537c0-.184.057-.275.173-.275h.64a12.947,12.947,0,0,0,4.965-.641,1.747,1.747,0,0,1,.674-.225c.117,0,.173.179.173.537q0,.017-.155,5.406c-.1,3.593-.155,8.729-.155,9.5,0,.288.057.375.173.259a17.935,17.935,0,0,1,2.334-1.677,5.959,5.959,0,0,1,2.768-.624,6.21,6.21,0,0,1,5,2.268,8.884,8.884,0,0,1,1.834,5.882m-3.08.917a8.272,8.272,0,0,0-1.488-5.035q-1.245-1.695-4.289-1.7a4.731,4.731,0,0,0-3.115.987.532.532,0,0,0-.137.4v6.194a20.356,20.356,0,0,0,.276,3.753,1.07,1.07,0,0,0,.537.813,6.615,6.615,0,0,0,3.009.606,4.988,4.988,0,0,0,3.788-1.592A6.222,6.222,0,0,0,192.586-510.788Z" transform="translate(-138.551)" fill="#fff"/></g></svg>