<svg xmlns="http://www.w3.org/2000/svg" width="30" height="30" viewBox="0 0 30 30"><rect width="30" height="30" fill="none"/><path d="M10,26h0a60.284,60.284,0,0,1-5-5.89C2.719,17.033,0,12.626,0,9.1A8.65,8.65,0,0,1,2.927,2.664,10.456,10.456,0,0,1,10,0a10.456,10.456,0,0,1,7.073,2.664A8.65,8.65,0,0,1,20,9.1c0,3.525-2.719,7.933-5,11.009A60.284,60.284,0,0,1,10,26ZM10,5.85A3.426,3.426,0,0,0,6.428,9.1,3.426,3.426,0,0,0,10,12.351,3.426,3.426,0,0,0,13.572,9.1,3.426,3.426,0,0,0,10,5.85Z" transform="translate(5 2)"/></svg>