<svg xmlns="http://www.w3.org/2000/svg" width="31.871" height="31.871" viewBox="0 0 31.871 31.871"><path d="M0,0H31.871V31.871H0Z" fill="none"/><path d="M25.058,16.581a10.348,10.348,0,0,0,.093-1.3,10.349,10.349,0,0,0-.093-1.3l2.8-2.191a.67.67,0,0,0,.159-.85L25.363,6.342a.663.663,0,0,0-.584-.332.62.62,0,0,0-.226.04L21.246,7.378A9.7,9.7,0,0,0,19,6.077l-.5-3.519A.648.648,0,0,0,17.847,2H12.535a.648.648,0,0,0-.651.558l-.5,3.519a10.2,10.2,0,0,0-2.244,1.3L5.829,6.05a.752.752,0,0,0-.239-.04.658.658,0,0,0-.571.332L2.363,10.937a.655.655,0,0,0,.159.85l2.8,2.191a10.531,10.531,0,0,0-.093,1.3,10.531,10.531,0,0,0,.093,1.3l-2.8,2.191a.67.67,0,0,0-.159.85l2.656,4.595a.663.663,0,0,0,.584.332.62.62,0,0,0,.226-.04l3.307-1.328a9.7,9.7,0,0,0,2.244,1.3l.5,3.519a.648.648,0,0,0,.651.558h5.312A.648.648,0,0,0,18.5,28l.5-3.519a10.2,10.2,0,0,0,2.244-1.3l3.307,1.328a.752.752,0,0,0,.239.04.658.658,0,0,0,.571-.332l2.656-4.595a.67.67,0,0,0-.159-.85ZM22.428,14.31a7.1,7.1,0,0,1,.066.969c0,.279-.027.571-.066.969l-.186,1.5,1.182.93,1.434,1.115-.93,1.607-1.687-.677-1.381-.558-1.2.9a7.777,7.777,0,0,1-1.66.969L16.6,22.61l-.212,1.5L16.12,25.9H14.261l-.252-1.793-.212-1.5-1.408-.571a7.535,7.535,0,0,1-1.633-.943l-1.208-.93-1.408.571-1.687.677-.93-1.607,1.434-1.115,1.182-.93-.186-1.5c-.04-.412-.066-.717-.066-.983s.027-.571.066-.969l.186-1.5-1.182-.93L5.523,10.765l.93-1.607,1.687.677,1.381.558,1.2-.9a7.777,7.777,0,0,1,1.66-.969l1.408-.571L14,6.449l.266-1.793h1.846l.252,1.793.212,1.5,1.408.571a7.535,7.535,0,0,1,1.633.943l1.208.93,1.408-.571,1.687-.677.93,1.607L23.424,11.88l-1.182.93.186,1.5ZM15.191,9.968A5.312,5.312,0,1,0,20.5,15.28,5.31,5.31,0,0,0,15.191,9.968Zm0,7.968a2.656,2.656,0,1,1,2.656-2.656A2.664,2.664,0,0,1,15.191,17.936Z" transform="translate(0.745 0.656)"/></svg>